# xmcd CD database file
#
# Track frame offsets:
#	215
#	13020
#	26801
#	40787
#	58221
#	74911
#	107436
#	129609
#	151832
#	170198
#	216407
#	230381
#	265576
#
# Disc length: 4059 seconds
#
# Revision: 1
# Processed by: cddbd v1.5.1PL0 Copyright (c) Steve Scherf et al.
# Submitted via: CDex 1.50
#
DISCID=bc0fd90d
DTITLE=let´s jazz in público (collection) - Let's Jazz Em Público 07 - Trompete
DYEAR=2005
DGENRE=Jazz
TTITLE0=Louis Armstrong - Shangai Shuffle
TTITLE1=Bix Beiderbecke - Singing The Blues 'Til My Daddy Comes Home
TTITLE2=Fats Navarro - Wail
TTITLE3=Miles Davis - Tempus Fugit
TTITLE4=Roy Eldridge - The Man I Love
TTITLE5=Clifford Brown - Jordu
TTITLE6=Chet Baker - Lush Life
TTITLE7=Dizzy Gillespie - Burk's Works
TTITLE8=Art Farmer - Mox Nix
TTITLE9=Lee Morgan - The Sidewinder
TTITLE10=Clarrk Terry - Return To Swahili
TTITLE11=Freddy Hubbard and Woody Shaw - The Eternal Triangle
TTITLE12=Don Cherry - Art Deco
EXTD=YEAR: 2005
EXTT0=
EXTT1=
EXTT2=
EXTT3=
EXTT4=
EXTT5=
EXTT6=
EXTT7=
EXTT8=
EXTT9=
EXTT10=
EXTT11=
EXTT12=
PLAYORDER=
